<?xml version="1.0" standalone="no"?><!DOCTYPE svg PUBLIC "-//W3C//DTD SVG 1.1//EN" "http://www.w3.org/Graphics/SVG/1.1/DTD/svg11.dtd"><svg class="icon" width="200px" height="150.04px" viewBox="0 0 1365 1024" version="1.1" xmlns="http://www.w3.org/2000/svg"><path d="M0 0h1137.777778a227.555556 227.555556 0 0 1 227.555555 227.555556v796.444444H227.555556a227.555556 227.555556 0 0 1-227.555556-227.555556V0z" fill="#FF5A75" /><path d="M380.928 340.195556v47.104h159.744c-23.210667 51.2-47.786667 101.717333-73.728 152.234666 77.141333 27.306667 144.725333 55.978667 202.752 84.650667-67.584 57.344-161.792 103.082667-283.306667 137.216l26.624 45.056c131.072-39.594667 232.106667-92.16 304.469334-157.013333l23.210666 13.653333c70.314667 41.642667 136.533333 89.429333 199.338667 142.677333l36.864-36.181333a1315.84 1315.84 0 0 0-186.368-134.485333c-12.288-6.826667-24.576-14.336-38.229333-21.162667 49.834667-57.344 85.333333-133.12 106.496-226.645333h125.610666V340.195556h-116.053333c2.730667-21.162667 5.461333-43.008 8.192-66.218667l-48.469333-3.413333c-2.730667 23.210667-5.461333 46.421333-9.557334 69.632h-201.386666c19.114667-45.056 38.229333-93.525333 58.709333-146.773334l-49.834667-15.018666a3995.306667 3995.306667 0 0 1-64.853333 161.792H380.928z m324.949333 249.856a1641.756444 1641.756444 0 0 0-172.032-71.68c20.48-39.594667 40.96-83.285333 62.805334-131.072h211.626666c-21.162667 83.285333-55.296 150.186667-101.717333 202.069333l-0.682667 0.682667z" fill="#FFFFFF" /></svg>