<?xml version="1.0" standalone="no"?><!DOCTYPE svg PUBLIC "-//W3C//DTD SVG 1.1//EN" "http://www.w3.org/Graphics/SVG/1.1/DTD/svg11.dtd"><svg class="icon" width="200px" height="150.04px" viewBox="0 0 1365 1024" version="1.1" xmlns="http://www.w3.org/2000/svg"><path d="M0 0h1137.777778a227.555556 227.555556 0 0 1 227.555555 227.555556v796.444444H227.555556a227.555556 227.555556 0 0 1-227.555556-227.555556V0z" fill="#3687FF" /><path d="M384.341333 475.363556v47.786666h287.402667v202.752c0 20.48-10.922667 31.402667-32.768 31.402667-39.594667 0-75.776-0.682667-109.909333-2.048l12.970666 47.786667h116.736c41.642667 0 62.805333-20.48 62.805334-61.44v-218.453334h259.413333v-47.786666h-259.413333v-71.68a1320.220444 1320.220444 0 0 0 185.002666-145.408v-46.421334h-450.56v46.421334h383.658667a1037.880889 1037.880889 0 0 1-167.936 120.149333v96.938667H384.341333z" fill="#FFFFFF" /></svg>