<?xml version="1.0" standalone="no"?><!DOCTYPE svg PUBLIC "-//W3C//DTD SVG 1.1//EN" "http://www.w3.org/Graphics/SVG/1.1/DTD/svg11.dtd"><svg class="icon" width="200px" height="142.92px" viewBox="0 0 1433 1024" version="1.1" xmlns="http://www.w3.org/2000/svg"><path fill="#4680FF" d="M1228.8 1024H204.8c-112.64 0-204.8-92.16-204.8-204.8V204.8C0 92.16 92.16 0 204.8 0h1024c112.64 0 204.8 92.16 204.8 204.8v614.4c0 112.64-92.16 204.8-204.8 204.8zM204.8 51.2C122.88 51.2 51.2 122.88 51.2 204.8v614.4c0 81.92 71.68 153.6 153.6 153.6h1024c81.92 0 153.6-71.68 153.6-153.6V204.8c0-81.92-71.68-153.6-153.6-153.6H204.8z"  /><path fill="#4680FF" d="M686.08 614.4l-40.96-10.24c0 51.2 0 81.92-10.24 102.4 0 10.24-20.48 20.48-30.72 20.48h-102.4c-10.24 0-10.24-10.24-10.24-30.72v-204.8h163.84V245.76H430.08v40.96H614.4v163.84H440.32v256c0 40.96 10.24 61.44 40.96 61.44h122.88c30.72 0 51.2-10.24 61.44-30.72 10.24-20.48 20.48-61.44 20.48-122.88zM133.12 235.52v40.96h81.92v71.68h-61.44v419.84h40.96v-20.48h174.08v30.72H409.6V358.4h-81.92v-71.68H409.6v-51.2H133.12z m51.2 460.8v-51.2h174.08v61.44H184.32z m40.96-296.96v40.96c0 61.44-10.24 92.16-30.72 122.88l20.48 20.48c30.72-30.72 40.96-81.92 40.96-143.36v-40.96h40.96V512c0 30.72 10.24 40.96 40.96 40.96h30.72v51.2H184.32v-204.8h40.96z m30.72-40.96v-71.68h40.96v71.68h-40.96z m102.4 153.6h-20.48c-10.24 0-10.24 0-10.24-10.24v-102.4h40.96V512z m593.92-276.48v235.52h133.12v51.2H921.6v256h40.96V563.2h112.64v81.92c-30.72 0-61.44 0-92.16 10.24l10.24 40.96c71.68-10.24 133.12-10.24 174.08-20.48 0 10.24 10.24 20.48 10.24 40.96l30.72-10.24c-10.24-40.96-20.48-81.92-30.72-112.64l-30.72 10.24c0 10.24 10.24 30.72 10.24 40.96-10.24 0-30.72 10.24-51.2 10.24v-92.16H1228.8v143.36c0 20.48-10.24 30.72-30.72 30.72h-51.2l10.24 40.96h71.68c30.72 0 51.2-20.48 51.2-61.44V522.24H1126.4v-51.2h133.12V235.52h-307.2z m256 204.8H1126.4v-61.44h92.16v61.44z m-133.12 0h-81.92v-61.44h81.92v61.44z m-81.92-102.4v-61.44h81.92v61.44h-81.92z m133.12-61.44h92.16v61.44H1126.4v-61.44zM819.2 430.08v348.16h40.96V358.4L921.6 235.52l-40.96-20.48c-30.72 92.16-81.92 174.08-143.36 245.76l10.24 51.2c30.72-30.72 51.2-51.2 71.68-81.92z"  /></svg>