<?xml version="1.0" standalone="no"?><!DOCTYPE svg PUBLIC "-//W3C//DTD SVG 1.1//EN" "http://www.w3.org/Graphics/SVG/1.1/DTD/svg11.dtd"><svg t="1747118238808" class="icon" viewBox="0 0 2786 1024" version="1.1" xmlns="http://www.w3.org/2000/svg" p-id="24413" xmlns:xlink="http://www.w3.org/1999/xlink" width="544.140625" height="200"><path d="M1109.55117395 285.758392C1109.55117395 128.182123 1237.72688495 0 1395.30828395 0c157.576269 0 285.75711 128.182123 285.75711 285.758392 0 157.585246-128.180841 285.75198-285.75711 285.75198-157.581399 0-285.75711-128.166734-285.75711-285.75198zM871.90884795 1023.324336c6.151726-69.10016 39.323855-313.93553 294.283861-445.062069 63.233129 49.638288 142.677216 79.52488 229.115575 79.52488 86.91285 0 166.782699-30.191806 230.18767-80.335364 256.061597 130.575102 286.974118 373.697171 293.210483 445.867423-1.517092 1.468361-1045.284344 0.120547-1046.797589 0.00513z m0 0" p-id="24414"></path></svg>